<svg width="27" height="27" viewBox="0 0 27 27" fill="none" xmlns="http://www.w3.org/2000/svg">
<g clip-path="url(#clip0_141_293)">
<path d="M0 21.1489C0.150994 20.6138 0.514753 20.2325 0.897519 19.8511C7.31108 13.4425 13.722 7.03239 20.1303 0.620643C20.8208 -0.0702158 21.7252 -0.195922 22.4696 0.303735C22.6129 0.405061 22.7462 0.519844 22.8677 0.646523C24.0313 1.8064 25.1928 2.9684 26.3522 4.13251C27.2138 4.99555 27.2138 6.03078 26.3559 6.89119C26.0275 7.22024 25.6986 7.54823 25.348 7.89789C25.2731 7.82658 25.2044 7.76427 25.1369 7.69877C24.3106 6.8727 23.4886 6.0424 22.6555 5.22214C22.1967 4.76948 21.4972 4.91526 21.3166 5.49573C21.211 5.83007 21.3219 6.11 21.5679 6.35349C22.3852 7.16425 23.1956 7.98082 24.0118 8.7921C24.0801 8.84954 24.1541 8.89996 24.2325 8.94263L22.9654 10.2166C22.4786 9.72592 21.9771 9.20883 21.4623 8.706C21.0399 8.29138 20.3995 8.41022 20.1746 8.93154C20.0442 9.2326 20.1123 9.56536 20.3679 9.82417C20.8673 10.3296 21.371 10.8303 21.8525 11.3131L20.635 12.5353C20.5907 12.4936 20.5199 12.4297 20.4529 12.3631C19.6261 11.5376 18.8035 10.7078 17.9715 9.88649C17.4963 9.41958 16.7868 9.60338 16.6252 10.2282C16.5418 10.552 16.6748 10.8092 16.8997 11.0321C17.7149 11.8444 18.5292 12.6577 19.3426 13.4718C19.4069 13.5296 19.4753 13.5825 19.5474 13.6302L18.2883 14.8825C17.8131 14.4035 17.3147 13.907 16.8211 13.4089C16.5941 13.1797 16.328 13.0719 16.0101 13.1628C15.4151 13.3334 15.2399 14.0264 15.6812 14.4832C16.1136 14.9322 16.5619 15.3663 17.0011 15.8079C17.0682 15.875 17.132 15.9447 17.1817 15.997L15.989 17.1912C15.9415 17.1468 15.8713 17.0856 15.8048 17.019C14.9907 16.206 14.1775 15.3919 13.3651 14.5767C13.1138 14.3237 12.8255 14.2123 12.4824 14.3237C11.937 14.5001 11.7744 15.1757 12.1799 15.6072C12.5589 16.0102 12.9581 16.3937 13.3498 16.785C13.8593 17.2937 14.3698 17.8013 14.856 18.2861L13.6201 19.5141C13.1698 19.0626 12.6698 18.5634 12.1704 18.0611C11.974 17.8641 11.7432 17.7479 11.4613 17.7917C11.1509 17.8393 10.9202 18.012 10.8278 18.3157C10.737 18.6094 10.7855 18.8914 11.0126 19.1201C11.4645 19.5749 11.919 20.027 12.3715 20.4812C12.4322 20.542 12.4892 20.6069 12.5346 20.6555L11.313 21.874C11.2712 21.8344 11.2031 21.7716 11.1377 21.7066C10.3051 20.8742 9.47621 20.0381 8.63835 19.2115C8.16953 18.7488 7.44782 18.9427 7.29524 19.567C7.21922 19.8786 7.3417 20.1316 7.55922 20.3502C8.38036 21.1689 9.2008 21.9883 10.0205 22.8084C10.0868 22.8665 10.1574 22.9195 10.2317 22.9668L8.96463 24.2345C8.81046 24.0718 8.64786 23.8927 8.47574 23.72C8.15475 23.3954 7.83164 23.0725 7.50642 22.7514C7.13686 22.3869 6.66487 22.3637 6.33859 22.6885C6.01232 23.0133 6.03397 23.4919 6.3972 23.8574C6.88608 24.3491 7.3776 24.8382 7.89763 25.3574C7.22819 25.9384 6.76201 26.7365 5.85288 27H5.16654C4.63859 26.8574 4.25424 26.513 3.8815 26.1333C2.88579 25.1195 1.88109 24.1148 0.867425 23.119C0.487827 22.7461 0.141492 22.3626 0.00105694 21.8339L0 21.1489Z" fill="#E95018"/>
<path d="M0.000118948 0.167963C0.105709 0.021129 0.241393 -0.0153157 0.414562 0.0290514C2.04065 0.446313 3.67097 0.847205 5.29284 1.28084C6.47123 1.59775 7.35977 2.35516 8.13692 3.2351L3.23488 8.13924C2.1568 7.25084 1.42823 6.13744 1.10723 4.74833C0.782016 3.34285 0.407698 1.94898 0.0513304 0.549307C0.0376523 0.509077 0.0199649 0.470328 -0.00146484 0.433639L0.000118948 0.167963Z" fill="#F28F81"/>
<path d="M23.0319 27C22.864 26.9557 22.6956 26.915 22.5288 26.8659C22.0246 26.7185 21.5637 26.4813 21.1867 26.1153C20.6012 25.5465 20.0358 24.957 19.4883 24.4035L24.4183 19.4708C25.0392 20.1237 25.7751 20.7569 26.339 21.518C27.8516 23.5584 26.6225 26.5104 24.1263 26.9472C24.0764 26.9608 24.0277 26.9785 23.9806 27H23.0319Z" fill="#F28F81"/>
<path d="M18.3236 23.1939L15.4146 20.2842L20.2717 15.4281L23.1807 18.3378L18.3236 23.1939Z" fill="#F28F81"/>
<path d="M9.33295 4.36121L11.6121 6.72851L6.72961 11.6126L4.45361 9.24212L9.33295 4.36121Z" fill="#F28F81"/>
</g>
<defs>
<clipPath id="clip0_141_293">
<rect width="27" height="27" fill="white"/>
</clipPath>
</defs>
</svg>
