<svg width="1652" height="1202" viewBox="0 0 1652 1202" fill="none" xmlns="http://www.w3.org/2000/svg">
<path d="M1868.54 735.239C1867.68 726.702 1865.05 718.439 1860.82 710.972C1856.6 703.505 1850.86 696.999 1843.98 691.866C1833.08 683.784 1821.31 676.998 1818.08 675.027L1817.35 674.299L1629.39 565.781C1623.15 562.54 1594.29 545.357 1577.77 545C1561.39 545.344 1532.51 562.527 1526.36 565.781L1337.65 674.71C1337.28 674.71 1337.28 675.067 1336.91 675.067C1333.68 677.011 1321.9 683.797 1310.99 691.879C1304.11 697.013 1298.37 703.521 1294.14 710.99C1289.91 718.459 1287.28 726.726 1286.42 735.265C1285.09 748.493 1285.21 761.429 1285 765.014V980.914C1285 981.567 1285 982.215 1285 982.859C1285.16 987.237 1285.11 1000.23 1286.54 1013.16C1287.48 1021.55 1290.14 1029.66 1294.37 1036.97C1298.59 1044.29 1304.27 1050.65 1311.07 1055.66C1319.6 1061.82 1328.47 1067.48 1337.63 1072.63L1523.52 1179.7L1525.34 1180.68C1529.73 1183.01 1560.67 1201.63 1577.47 1201.99C1594.25 1201.66 1625.19 1183.01 1629.6 1180.68L1631.42 1179.69L1817.27 1072.54C1826.47 1067.36 1835.39 1061.68 1843.98 1055.54C1850.88 1050.42 1856.64 1043.91 1860.89 1036.44C1865.13 1028.97 1867.77 1020.69 1868.64 1012.14C1869.96 999.049 1869.84 986.113 1870.05 982.317V766.707C1870.05 765.825 1870.05 764.944 1870.05 764.062C1869.77 759.511 1869.8 747.448 1868.54 735.239Z" fill="url(#paint0_linear_328_2)"/>
<path d="M492.544 190.239C491.681 181.702 489.052 173.439 484.824 165.972C480.595 158.505 474.86 151.999 467.981 146.866C457.076 138.784 445.311 131.998 442.081 130.027L441.354 129.299L253.385 20.7805C247.152 17.5398 218.288 0.357144 201.771 0C185.387 0.343917 156.51 17.5265 150.356 20.7805L-38.3536 129.71C-38.7242 129.71 -38.7242 130.067 -39.0947 130.067C-42.3239 132.011 -54.1025 138.797 -65.0076 146.879C-71.8896 152.013 -77.6282 158.521 -81.859 165.99C-86.0899 173.459 -88.7205 181.726 -89.5839 190.265C-90.9073 203.493 -90.7882 216.429 -91 220.014V435.914C-91 436.567 -91 437.215 -91 437.859C-90.8412 442.237 -90.8942 455.227 -89.4648 468.163C-88.5227 476.554 -85.8571 484.66 -81.635 491.973C-77.4128 499.286 -71.7251 505.649 -64.9282 510.663C-56.402 516.817 -47.534 522.483 -38.3668 527.634L147.523 634.698L149.337 635.677C153.73 638.005 184.672 656.63 201.467 656.987C218.248 656.656 249.19 638.005 253.597 635.677L255.424 634.685L441.274 527.542C450.474 522.358 459.389 516.684 467.981 510.544C474.883 505.421 480.641 498.915 484.886 491.442C489.131 483.97 491.771 475.694 492.637 467.145C493.96 454.049 493.841 441.113 494.053 437.317V221.707C494.053 220.825 494.053 219.944 494.053 219.062C493.775 214.511 493.801 202.448 492.544 190.239Z" fill="url(#paint1_linear_328_2)"/>
<defs>
<linearGradient id="paint0_linear_328_2" x1="1984.5" y1="218" x2="1387.5" y2="963.5" gradientUnits="userSpaceOnUse">
<stop stop-color="#C9C9C9"/>
<stop offset="1" stop-color="#F1F1F1" stop-opacity="0"/>
</linearGradient>
<linearGradient id="paint1_linear_328_2" x1="608.5" y1="-327" x2="11.5001" y2="418.5" gradientUnits="userSpaceOnUse">
<stop stop-color="#C9C9C9"/>
<stop offset="1" stop-color="#F1F1F1" stop-opacity="0"/>
</linearGradient>
</defs>
</svg>
