<svg width="40" height="44" viewBox="0 0 40 44" fill="none" xmlns="http://www.w3.org/2000/svg">
<path d="M29.3222 16.4936C29.3222 16.5423 25.8122 17.7417 25.7151 20.1885V26.1599L21.4983 28.6066V23.6397C21.496 23.1083 21.2847 22.5993 20.9104 22.2235C20.5361 21.8477 20.0291 21.6356 19.4998 21.6333C18.9703 21.6354 18.4631 21.8474 18.0886 22.2232C17.7142 22.599 17.5027 23.1081 17.5004 23.6397V28.6075L13.2801 26.1599V20.1849C13.2069 17.7382 9.69688 16.5388 9.67305 16.49C9.62961 16.4756 9.58367 16.4704 9.53812 16.4747C9.49256 16.4789 9.44838 16.4926 9.40835 16.5149C9.37018 16.543 9.33922 16.5798 9.31805 16.6223C9.29688 16.6648 9.28609 16.7118 9.28658 16.7593V26.307C9.28658 26.5515 9.26188 27.7243 9.57864 28.2886C9.94482 28.8759 11.1386 29.512 11.1669 29.5368L17.6257 33.2813C17.6504 33.2813 18.7957 34.0147 19.5033 34.0395C20.1854 34.0147 21.3307 33.2813 21.3801 33.2813L27.8389 29.5368C27.8636 29.512 29.0583 28.8759 29.4272 28.2886C29.7192 27.7261 29.6919 26.5754 29.6919 26.3309V16.7638C29.6924 16.7162 29.6816 16.6693 29.6604 16.6268C29.6392 16.5842 29.6083 16.5474 29.5701 16.5193C29.5362 16.4903 29.4944 16.4723 29.4501 16.4677C29.4058 16.4631 29.3612 16.4722 29.3222 16.4936Z" fill="#121212"/>
<path d="M38.4874 11.012C37.9024 10.0818 35.9039 8.93199 35.5386 8.70876L35.49 8.66004L22.9606 1.39166C22.545 1.17463 20.6206 0.0239179 19.5238 0C18.4271 0.0239179 16.5018 1.17463 16.0871 1.39432L3.51 8.6875C3.4853 8.6875 3.4853 8.71142 3.46059 8.71142C3.0953 8.93199 1.09677 10.0818 0.511765 11.0146C-0.024706 11.9935 0.0238235 14.3179 0 14.7352V29.2675C0.0238235 29.6351 -0.024706 32.0083 0.511765 33.012C1.14529 34.0395 3.4853 35.3152 3.51177 35.3364L15.9918 42.5561C16.0403 42.5561 18.3071 43.9734 19.5018 43.9991C20.6956 43.9752 22.9624 42.5561 23.0118 42.5561L35.49 35.3329C35.5138 35.309 37.8539 34.036 38.49 33.0084C39.0265 32.0296 38.978 29.7308 39.0027 29.2879V14.7316C38.9753 14.3153 39.0238 11.9908 38.4874 11.012ZM34.0271 30.4421C33.93 30.6379 33.3688 31.103 32.8571 31.4458C32.3453 31.7886 31.8821 32.057 31.8821 32.057L21.9618 37.8079C21.9618 37.8079 21.4985 38.0737 20.9374 38.3465C20.4018 38.6123 19.7188 38.8851 19.5 38.8603C19.2556 38.8851 18.5974 38.6158 18.0618 38.3465C17.5006 38.0808 17.0621 37.8079 17.0374 37.8079L7.11706 32.0552C7.11706 32.0552 6.65383 31.7895 6.14206 31.444C5.6303 31.0985 5.07441 30.6379 4.97206 30.4421C4.70736 30.0506 4.63059 28.1389 4.6553 27.8236V16.2243C4.63059 15.9798 4.70383 13.9973 4.97206 13.6057C5.07 13.4099 5.6303 12.9449 6.14206 12.6029C6.65383 12.261 7.11706 11.9908 7.11706 11.9908C7.14177 11.9908 7.14177 11.966 7.16559 11.966L17.1106 6.2151C17.3753 6.04413 19.0606 5.1636 19.5238 5.18752C19.9871 5.1636 21.6688 6.04413 21.9371 6.2151L31.8821 11.966C31.8953 11.9792 31.9122 11.9879 31.9306 11.9908C31.9306 11.9908 32.3938 12.2566 32.9056 12.6029C33.4174 12.9493 33.9786 13.4099 34.0756 13.6057C34.3403 13.9973 34.4171 15.9798 34.3924 16.2243V27.8032C34.3686 28.0193 34.2953 30.0267 34.0271 30.4421Z" fill="#121212"/>
</svg>
