<svg width="27" height="29" viewBox="0 0 27 29" fill="none" xmlns="http://www.w3.org/2000/svg">
<path d="M17.6551 0C18.1855 0.27504 18.3685 0.709377 18.3262 1.29167C18.2882 1.81371 18.322 2.34052 18.3166 2.86495C18.3166 3.11717 18.2151 3.35906 18.0346 3.53741C17.854 3.71576 17.6091 3.81595 17.3537 3.81595C17.0984 3.81595 16.8535 3.71576 16.6729 3.53741C16.4923 3.35906 16.3909 3.11717 16.3909 2.86495C16.386 2.33993 16.4193 1.81312 16.3818 1.29108C16.3401 0.709973 16.5177 0.27325 17.0523 0.000597198L17.6551 0Z" fill="#F28F81"/>
<path d="M26.9997 9.7648C26.7774 10.3018 26.3781 10.5189 25.7916 10.4855C25.2413 10.4545 24.688 10.4813 24.1359 10.4784C23.553 10.4784 23.1386 10.0715 23.1416 9.5166C23.1452 8.97667 23.5584 8.57872 24.125 8.57514C24.6372 8.57514 25.1519 8.60498 25.6599 8.5662C26.2579 8.52145 26.7152 8.68551 26.9997 9.22903V9.7648Z" fill="#F28F81"/>
<path d="M12.6876 22.1225C13.5243 22.9464 14.298 23.6976 15.0591 24.4606C15.9586 25.3621 16.0667 26.6711 15.3346 27.6281C14.4406 28.7969 12.765 28.9174 11.6837 27.8781C10.9138 27.1371 10.1539 26.3859 9.40404 25.6246C9.25786 25.4773 9.15517 25.4636 8.97093 25.5578C8.16573 25.9677 7.31705 26.0655 6.42909 25.8752C6.29743 25.8565 6.16331 25.8848 6.05096 25.9552C4.74198 26.7952 3.37502 26.9097 2.00383 26.1729C0.643511 25.4427 -0.0130914 24.2536 0.000197685 22.7257C0.00684223 21.9853 0.259939 21.3117 0.664652 20.6882C0.747011 20.5622 0.782853 20.412 0.766133 20.2629C0.503976 18.8698 0.869425 17.6765 1.88604 16.6754C2.88957 15.6882 3.89048 14.698 4.88877 13.7049C5.02889 13.5648 5.14771 13.4055 5.24153 13.2317C7.18858 9.61228 9.13221 5.98984 11.0724 2.3644C11.5255 1.519 12.1911 1.42055 12.8779 2.0989C16.8574 6.02761 20.826 9.96648 24.8242 13.8767C25.4766 14.5145 25.3739 15.3014 24.5282 15.7351C20.8979 17.5966 17.2893 19.4986 13.6801 21.3994C13.3358 21.582 13.0434 21.86 12.6876 22.1225ZM12.2618 4.27059C12.2449 4.29565 12.2268 4.31951 12.2129 4.34516C10.5372 7.46825 8.86019 10.5905 7.18174 13.712C7.07844 13.9035 7.17449 13.9757 7.28141 14.0813C9.0851 15.8624 10.8872 17.6455 12.6876 19.4306C12.8362 19.5779 12.942 19.6149 13.1455 19.5075C16.233 17.8828 19.3237 16.264 22.4177 14.6511C22.501 14.6075 22.5808 14.5568 22.6351 14.5246L12.2618 4.27059ZM5.88424 15.487C4.94978 16.3998 3.99417 17.2947 3.08508 18.2314C2.42606 18.9115 2.44539 20.0427 3.11045 20.7246C4.05156 21.6896 5.01079 22.6366 5.98814 23.5657C6.6677 24.2113 7.78277 24.2542 8.46474 23.6206C9.44149 22.7084 10.3584 21.7341 11.276 20.8112L5.88424 15.487ZM10.6991 24.1892C11.4959 24.9767 12.2727 25.7511 13.0585 26.516C13.27 26.7218 13.5418 26.7141 13.732 26.5285C13.7771 26.4849 13.8127 26.4327 13.8368 26.3751C13.8609 26.3176 13.873 26.2558 13.8723 26.1935C13.8716 26.1312 13.8582 26.0697 13.8329 26.0126C13.8075 25.9556 13.7708 25.9042 13.7248 25.8615C12.9438 25.0769 12.1543 24.3019 11.3805 23.5347L10.6991 24.1892ZM1.98329 22.4369C1.84013 23.1678 2.0437 23.8091 2.6411 24.2972C3.11105 24.6814 3.65832 24.8007 4.24968 24.6683C3.48798 23.9213 2.74017 23.1851 1.98148 22.4375L1.98329 22.4369Z" fill="#E95018"/>
<path d="M21.2448 6.72205C20.8057 6.66716 20.5025 6.47564 20.3339 6.11409C20.1654 5.75254 20.2004 5.38324 20.4862 5.0915C21.1506 4.41553 21.8211 3.74732 22.5079 3.09463C22.8782 2.74382 23.4508 2.77484 23.8145 3.12267C24.1878 3.48064 24.2313 4.05876 23.8676 4.43522C23.2084 5.11457 22.5335 5.77919 21.8429 6.4291C21.6882 6.57289 21.4466 6.62659 21.2448 6.72205Z" fill="#F28F81"/>
</svg>
