<svg width="27" height="33" viewBox="0 0 27 33" fill="none" xmlns="http://www.w3.org/2000/svg">
<path d="M26.5839 15.0833C26.3107 14.6605 25.8724 14.3837 25.4419 14.1227L2.59875 0.275C2.31188 0.103125 2.01656 0 1.67906 0C0.760751 0 0.0106844 0.771125 0.00844241 1.71451C0.00843687 1.71684 0.0065486 1.71875 0.00421869 1.71875C0.00188877 1.71875 0 1.72064 0 1.72297V31.277C0 31.2794 0.00188877 31.2812 0.00421869 31.2812C0.0065486 31.2812 0.00843687 31.2832 0.00844241 31.2855C0.0106845 32.2289 0.760751 33 1.67906 33C2.025 33 2.31187 32.8797 2.62406 32.7078L25.4761 18.8565C25.8839 18.6093 26.2989 18.3484 26.5634 17.9517C26.839 17.5384 27 17.0387 27 16.5C27 15.9748 26.8469 15.4903 26.5839 15.0833Z" fill="#E95018"/>
</svg>
