<svg width="27" height="27" viewBox="0 0 27 27" fill="none" xmlns="http://www.w3.org/2000/svg">
<path d="M6.16572 12.6777L2.27952 12.1268C2.00254 12.0877 1.7023 12.0877 1.52046 11.8276C1.27096 11.4692 1.47077 11.2091 1.7319 10.9585C3.61834 9.12157 5.98043 7.84829 8.55178 7.28225C9.33652 7.08655 10.1409 6.98015 10.9495 6.96506C11.079 6.96805 11.2076 6.94185 11.3256 6.88841C11.4436 6.83497 11.5481 6.75564 11.6314 6.65632C14.8255 3.29127 18.7018 1.16467 23.2604 0.276536C24.2259 0.0841969 25.2086 -0.00827424 26.193 0.000580472C26.8273 0.00798162 27.0028 0.177151 26.9996 0.819993C26.9848 4.01835 26.0862 6.98197 24.6041 9.78701C23.5112 11.8793 22.0685 13.7692 20.3383 15.3749C20.242 15.4609 20.1651 15.5665 20.113 15.6847C20.0608 15.8029 20.0346 15.9309 20.036 16.06C19.8414 19.5844 18.5337 22.6319 16.1128 25.2026C15.8823 25.4468 15.6423 25.6466 15.2882 25.5134C14.952 25.3876 14.9255 25.0725 14.8833 24.7733C14.6993 23.4742 14.515 22.1748 14.3303 20.875C14.2627 20.8845 14.2246 20.875 14.1971 20.8972C13.2615 21.6109 13.2626 21.6109 12.419 20.7661L6.08115 14.4223C5.37389 13.7149 5.37284 13.6938 6.0156 12.9145C6.05155 12.8691 6.08115 12.8056 6.16572 12.6777ZM19.2642 4.93292C18.8944 4.93081 18.5278 5.00221 18.1857 5.14299C17.8437 5.28376 17.533 5.4911 17.2718 5.75297C17.0106 6.01483 16.8039 6.32598 16.664 6.66838C16.524 7.01077 16.4534 7.37757 16.4563 7.74747C16.4654 8.4851 16.7618 9.19007 17.2827 9.71238C17.8036 10.2347 18.5077 10.5331 19.2452 10.5441C19.6151 10.5473 19.982 10.477 20.3245 10.3374C20.6671 10.1977 20.9786 9.99147 21.2408 9.73055C21.5031 9.46964 21.711 9.15925 21.8524 8.81739C21.9938 8.47552 22.066 8.10897 22.0647 7.739C22.0725 7.36882 22.0054 7.0009 21.8674 6.65729C21.7295 6.31368 21.5236 6.00148 21.2621 5.73941C21.0005 5.47735 20.6888 5.27082 20.3454 5.13224C20.0021 4.99365 19.6344 4.92586 19.2642 4.93292V4.93292Z" fill="#EB5A41"/>
<path d="M4.9153 18.0298C7.18296 18.0298 8.47167 19.048 8.89983 20.6731C9.0826 21.4035 9.01713 22.174 8.71375 22.8632C8.41037 23.5523 7.88632 24.1209 7.22419 24.4794C5.48195 25.4468 3.5896 26.0495 1.70993 26.6775C1.39277 26.7832 1.07562 26.889 0.758462 26.9714C0.273215 27.0899 -0.114772 26.7272 0.0311195 26.2535C0.723574 24.0078 1.41709 21.7557 2.56836 19.6919C3.20373 18.5616 4.24082 18.0414 4.9153 18.0298Z" fill="#F28F81"/>
</svg>
